<?xml version="1.0" encoding="UTF-8" standalone="no"?>
<!DOCTYPE svg PUBLIC "-//W3C//DTD SVG 1.1//EN"
 "http://www.w3.org/Graphics/SVG/1.1/DTD/svg11.dtd">
<!-- Generated by graphviz version 2.28.0 (20121025.2137)
 -->
<!-- Title: controllers_diagram Pages: 1 -->
<svg width="665pt" height="570pt"
 viewBox="0.00 0.00 664.94 570.18" xmlns="http://www.w3.org/2000/svg" xmlns:xlink="http://www.w3.org/1999/xlink">
<g id="graph1" class="graph" transform="scale(1 1) rotate(0) translate(4 566.175)">
<title>controllers_diagram</title>
<polygon fill="white" stroke="white" points="-4,5 -4,-566.175 661.936,-566.175 661.936,5 -4,5"/>
<!-- _diagram_info -->
<g id="node1" class="node"><title>_diagram_info</title>
<text text-anchor="start" x="457.56" y="-519" font-family="Times,serif" font-size="13.00">Controllers diagram</text>
<text text-anchor="start" x="457.56" y="-503.4" font-family="Times,serif" font-size="13.00">Date: Oct 25 2012 &#45; 17:46</text>
<text text-anchor="start" x="457.56" y="-487.8" font-family="Times,serif" font-size="13.00">Migration version: 20121017050957</text>
<text text-anchor="start" x="457.56" y="-472.2" font-family="Times,serif" font-size="13.00">Generated by RailRoady 1.1.0</text>
<text text-anchor="start" x="457.56" y="-456.6" font-family="Times,serif" font-size="13.00">http://railroady.prestonlee.com</text>
</g>
<!-- AdminController -->
<g id="node2" class="node"><title>AdminController</title>
<polyline fill="none" stroke="black" points="47.7867,-0.5 136.221,-0.5 "/>
<path fill="none" stroke="black" d="M136.221,-0.5C142.221,-0.5 148.221,-6.5 148.221,-12.5"/>
<polyline fill="none" stroke="black" points="148.221,-12.5 148.221,-238.1 "/>
<path fill="none" stroke="black" d="M148.221,-238.1C148.221,-244.1 142.221,-250.1 136.221,-250.1"/>
<polyline fill="none" stroke="black" points="136.221,-250.1 47.7867,-250.1 "/>
<path fill="none" stroke="black" d="M47.7867,-250.1C41.7867,-250.1 35.7867,-244.1 35.7867,-238.1"/>
<polyline fill="none" stroke="black" points="35.7867,-238.1 35.7867,-12.5 "/>
<path fill="none" stroke="black" d="M35.7867,-12.5C35.7867,-6.5 41.7867,-0.5 47.7867,-0.5"/>
<text text-anchor="middle" x="92.0039" y="-232.1" font-family="Times,serif" font-size="14.00">AdminController</text>
<polyline fill="none" stroke="black" points="35.7867,-225.3 148.221,-225.3 "/>
<text text-anchor="start" x="43.7867" y="-207.3" font-family="Times,serif" font-size="14.00">add_user</text>
<text text-anchor="start" x="43.7867" y="-190.5" font-family="Times,serif" font-size="14.00">create_faculty</text>
<text text-anchor="start" x="43.7867" y="-173.7" font-family="Times,serif" font-size="14.00">delete_user</text>
<text text-anchor="start" x="43.7867" y="-156.9" font-family="Times,serif" font-size="14.00">index</text>
<text text-anchor="start" x="43.7867" y="-140.1" font-family="Times,serif" font-size="14.00">search_users</text>
<text text-anchor="start" x="43.7867" y="-123.3" font-family="Times,serif" font-size="14.00">view_admin</text>
<text text-anchor="start" x="43.7867" y="-106.5" font-family="Times,serif" font-size="14.00">view_faculty</text>
<text text-anchor="start" x="43.7867" y="-89.7" font-family="Times,serif" font-size="14.00">view_students</text>
<text text-anchor="start" x="43.7867" y="-72.9" font-family="Times,serif" font-size="14.00">view_tas</text>
<text text-anchor="start" x="43.7867" y="-56.1" font-family="Times,serif" font-size="14.00">view_user_info</text>
<polyline fill="none" stroke="black" points="35.7867,-49.3 148.221,-49.3 "/>
<polyline fill="none" stroke="black" points="35.7867,-25.3 148.221,-25.3 "/>
<text text-anchor="start" x="43.7867" y="-7.3" font-family="Times,serif" font-size="14.00">_layout</text>
</g>
<!-- ApplicationController -->
<g id="node3" class="node"><title>ApplicationController</title>
<polyline fill="none" stroke="black" points="168.221,-219.207 346.856,-219.207 "/>
<path fill="none" stroke="black" d="M346.856,-219.207C352.856,-219.207 358.856,-225.207 358.856,-231.207"/>
<polyline fill="none" stroke="black" points="358.856,-231.207 358.856,-339.207 "/>
<path fill="none" stroke="black" d="M358.856,-339.207C358.856,-345.207 352.856,-351.207 346.856,-351.207"/>
<polyline fill="none" stroke="black" points="346.856,-351.207 168.221,-351.207 "/>
<path fill="none" stroke="black" d="M168.221,-351.207C162.221,-351.207 156.221,-345.207 156.221,-339.207"/>
<polyline fill="none" stroke="black" points="156.221,-339.207 156.221,-231.207 "/>
<path fill="none" stroke="black" d="M156.221,-231.207C156.221,-225.207 162.221,-219.207 168.221,-219.207"/>
<text text-anchor="middle" x="257.539" y="-333.207" font-family="Times,serif" font-size="14.00">ApplicationController</text>
<polyline fill="none" stroke="black" points="156.221,-326.407 358.856,-326.407 "/>
<text text-anchor="start" x="164.221" y="-308.407" font-family="Times,serif" font-size="14.00">_one_time_conditions_valid_64?</text>
<text text-anchor="start" x="164.221" y="-291.607" font-family="Times,serif" font-size="14.00">not_found</text>
<text text-anchor="start" x="164.221" y="-274.807" font-family="Times,serif" font-size="14.00">requires</text>
<polyline fill="none" stroke="black" points="156.221,-268.007 358.856,-268.007 "/>
<polyline fill="none" stroke="black" points="156.221,-244.007 358.856,-244.007 "/>
<text text-anchor="start" x="164.221" y="-226.007" font-family="Times,serif" font-size="14.00">_layout</text>
</g>
<!-- ApplicationController&#45;&gt;AdminController -->
<g id="edge2" class="edge"><title>ApplicationController&#45;&gt;AdminController</title>
<path fill="none" stroke="black" d="M188.775,-218.781C175.273,-205.738 161.259,-192.201 148.227,-179.611"/>
</g>
<!-- AuthenticationsController -->
<g id="node4" class="node"><title>AuthenticationsController</title>
<polyline fill="none" stroke="black" points="290.028,-12.8877 428.222,-12.8877 "/>
<path fill="none" stroke="black" d="M428.222,-12.8877C434.222,-12.8877 440.222,-18.8877 440.222,-24.8877"/>
<polyline fill="none" stroke="black" points="440.222,-24.8877 440.222,-132.888 "/>
<path fill="none" stroke="black" d="M440.222,-132.888C440.222,-138.888 434.222,-144.888 428.222,-144.888"/>
<polyline fill="none" stroke="black" points="428.222,-144.888 290.028,-144.888 "/>
<path fill="none" stroke="black" d="M290.028,-144.888C284.028,-144.888 278.028,-138.888 278.028,-132.888"/>
<polyline fill="none" stroke="black" points="278.028,-132.888 278.028,-24.8877 "/>
<path fill="none" stroke="black" d="M278.028,-24.8877C278.028,-18.8877 284.028,-12.8877 290.028,-12.8877"/>
<text text-anchor="middle" x="359.125" y="-126.888" font-family="Times,serif" font-size="14.00">AuthenticationsController</text>
<polyline fill="none" stroke="black" points="278.028,-120.088 440.222,-120.088 "/>
<text text-anchor="start" x="286.028" y="-102.088" font-family="Times,serif" font-size="14.00">create</text>
<text text-anchor="start" x="286.028" y="-85.2877" font-family="Times,serif" font-size="14.00">destroy</text>
<text text-anchor="start" x="286.028" y="-68.4877" font-family="Times,serif" font-size="14.00">index</text>
<polyline fill="none" stroke="black" points="278.028,-61.6877 440.222,-61.6877 "/>
<polyline fill="none" stroke="black" points="278.028,-37.6877 440.222,-37.6877 "/>
<text text-anchor="start" x="286.028" y="-19.6877" font-family="Times,serif" font-size="14.00">_layout</text>
</g>
<!-- ApplicationController&#45;&gt;AuthenticationsController -->
<g id="edge4" class="edge"><title>ApplicationController&#45;&gt;AuthenticationsController</title>
<path fill="none" stroke="black" d="M290.1,-219.075C301.765,-195.384 314.909,-168.689 326.573,-144.999"/>
</g>
<!-- CourseController -->
<g id="node5" class="node"><title>CourseController</title>
<polyline fill="none" stroke="black" points="249.496,-463.275 338.703,-463.275 "/>
<path fill="none" stroke="black" d="M338.703,-463.275C344.703,-463.275 350.703,-469.275 350.703,-475.275"/>
<polyline fill="none" stroke="black" points="350.703,-475.275 350.703,-549.675 "/>
<path fill="none" stroke="black" d="M350.703,-549.675C350.703,-555.675 344.703,-561.675 338.703,-561.675"/>
<polyline fill="none" stroke="black" points="338.703,-561.675 249.496,-561.675 "/>
<path fill="none" stroke="black" d="M249.496,-561.675C243.496,-561.675 237.496,-555.675 237.496,-549.675"/>
<polyline fill="none" stroke="black" points="237.496,-549.675 237.496,-475.275 "/>
<path fill="none" stroke="black" d="M237.496,-475.275C237.496,-469.275 243.496,-463.275 249.496,-463.275"/>
<text text-anchor="middle" x="294.099" y="-543.675" font-family="Times,serif" font-size="14.00">CourseController</text>
<polyline fill="none" stroke="black" points="237.496,-536.875 350.703,-536.875 "/>
<text text-anchor="start" x="245.496" y="-518.875" font-family="Times,serif" font-size="14.00">show</text>
<polyline fill="none" stroke="black" points="237.496,-512.075 350.703,-512.075 "/>
<polyline fill="none" stroke="black" points="237.496,-488.075 350.703,-488.075 "/>
<text text-anchor="start" x="245.496" y="-470.075" font-family="Times,serif" font-size="14.00">_layout</text>
</g>
<!-- ApplicationController&#45;&gt;CourseController -->
<g id="edge6" class="edge"><title>ApplicationController&#45;&gt;CourseController</title>
<path fill="none" stroke="black" d="M268.163,-351.248C273.918,-387.026 280.91,-430.488 286.183,-463.268"/>
</g>
<!-- FacultyController -->
<g id="node6" class="node"><title>FacultyController</title>
<polyline fill="none" stroke="black" points="439.077,-254.25 530.616,-254.25 "/>
<path fill="none" stroke="black" d="M530.616,-254.25C536.616,-254.25 542.616,-260.25 542.616,-266.25"/>
<polyline fill="none" stroke="black" points="542.616,-266.25 542.616,-374.25 "/>
<path fill="none" stroke="black" d="M542.616,-374.25C542.616,-380.25 536.616,-386.25 530.616,-386.25"/>
<polyline fill="none" stroke="black" points="530.616,-386.25 439.077,-386.25 "/>
<path fill="none" stroke="black" d="M439.077,-386.25C433.077,-386.25 427.077,-380.25 427.077,-374.25"/>
<polyline fill="none" stroke="black" points="427.077,-374.25 427.077,-266.25 "/>
<path fill="none" stroke="black" d="M427.077,-266.25C427.077,-260.25 433.077,-254.25 439.077,-254.25"/>
<text text-anchor="middle" x="484.846" y="-368.25" font-family="Times,serif" font-size="14.00">FacultyController</text>
<polyline fill="none" stroke="black" points="427.077,-361.45 542.616,-361.45 "/>
<text text-anchor="start" x="435.077" y="-343.45" font-family="Times,serif" font-size="14.00">add_course</text>
<text text-anchor="start" x="435.077" y="-326.65" font-family="Times,serif" font-size="14.00">index</text>
<text text-anchor="start" x="435.077" y="-309.85" font-family="Times,serif" font-size="14.00">new_course</text>
<polyline fill="none" stroke="black" points="427.077,-303.05 542.616,-303.05 "/>
<polyline fill="none" stroke="black" points="427.077,-279.05 542.616,-279.05 "/>
<text text-anchor="start" x="435.077" y="-261.05" font-family="Times,serif" font-size="14.00">_layout</text>
</g>
<!-- ApplicationController&#45;&gt;FacultyController -->
<g id="edge8" class="edge"><title>ApplicationController&#45;&gt;FacultyController</title>
<path fill="none" stroke="black" d="M358.894,-300.832C382.217,-304.428 406.239,-308.131 426.969,-311.327"/>
</g>
<!-- HomeController -->
<g id="node7" class="node"><title>HomeController</title>
<polyline fill="none" stroke="black" points="11.5603,-342.683 95.3191,-342.683 "/>
<path fill="none" stroke="black" d="M95.3191,-342.683C101.319,-342.683 107.319,-348.683 107.319,-354.683"/>
<polyline fill="none" stroke="black" points="107.319,-354.683 107.319,-429.083 "/>
<path fill="none" stroke="black" d="M107.319,-429.083C107.319,-435.083 101.319,-441.083 95.3191,-441.083"/>
<polyline fill="none" stroke="black" points="95.3191,-441.083 11.5603,-441.083 "/>
<path fill="none" stroke="black" d="M11.5603,-441.083C5.5603,-441.083 -0.439697,-435.083 -0.439697,-429.083"/>
<polyline fill="none" stroke="black" points="-0.439697,-429.083 -0.439697,-354.683 "/>
<path fill="none" stroke="black" d="M-0.439697,-354.683C-0.439697,-348.683 5.5603,-342.683 11.5603,-342.683"/>
<text text-anchor="middle" x="53.4397" y="-423.083" font-family="Times,serif" font-size="14.00">HomeController</text>
<polyline fill="none" stroke="black" points="-0.439697,-416.283 107.319,-416.283 "/>
<text text-anchor="start" x="7.5603" y="-398.283" font-family="Times,serif" font-size="14.00">index</text>
<polyline fill="none" stroke="black" points="-0.439697,-391.483 107.319,-391.483 "/>
<polyline fill="none" stroke="black" points="-0.439697,-367.483 107.319,-367.483 "/>
<text text-anchor="start" x="7.5603" y="-349.483" font-family="Times,serif" font-size="14.00">_layout</text>
</g>
<!-- ApplicationController&#45;&gt;HomeController -->
<g id="edge10" class="edge"><title>ApplicationController&#45;&gt;HomeController</title>
<path fill="none" stroke="black" d="M156.087,-338.232C139.279,-347.017 122.45,-355.813 107.423,-363.668"/>
</g>
</g>
</svg>
