<?xml version="1.0" encoding="UTF-8" standalone="no"?>
<!DOCTYPE svg PUBLIC "-//W3C//DTD SVG 1.1//EN"
 "http://www.w3.org/Graphics/SVG/1.1/DTD/svg11.dtd">
<!-- Generated by graphviz version 2.28.0 (20121025.2137)
 -->
<!-- Title: models_diagram Pages: 1 -->
<svg width="597pt" height="704pt"
 viewBox="0.00 0.00 597.00 704.00" xmlns="http://www.w3.org/2000/svg" xmlns:xlink="http://www.w3.org/1999/xlink">
<g id="graph1" class="graph" transform="scale(1 1) rotate(0) translate(4 700)">
<title>models_diagram</title>
<polygon fill="white" stroke="white" points="-4,5 -4,-700 594,-700 594,5 -4,5"/>
<!-- _diagram_info -->
<g id="node1" class="node"><title>_diagram_info</title>
<text text-anchor="start" x="7.31226" y="-570" font-family="Times,serif" font-size="13.00">Models diagram</text>
<text text-anchor="start" x="7.31226" y="-554.4" font-family="Times,serif" font-size="13.00">Date: Oct 25 2012 &#45; 17:46</text>
<text text-anchor="start" x="7.31226" y="-538.8" font-family="Times,serif" font-size="13.00">Migration version: 20121017050957</text>
<text text-anchor="start" x="7.31226" y="-523.2" font-family="Times,serif" font-size="13.00">Generated by RailRoady 1.1.0</text>
<text text-anchor="start" x="7.31226" y="-507.6" font-family="Times,serif" font-size="13.00">http://railroady.prestonlee.com</text>
</g>
<!-- Ability -->
<g id="node2" class="node"><title>Ability</title>
<polygon fill="none" stroke="black" points="225.166,-519.2 225.166,-568.8 280.834,-568.8 280.834,-519.2 225.166,-519.2"/>
<text text-anchor="middle" x="253" y="-550.8" font-family="Times,serif" font-size="14.00">Ability</text>
<polyline fill="none" stroke="black" points="225.166,-544 280.834,-544 "/>
<text text-anchor="middle" x="253" y="-526" font-family="Times,serif" font-size="14.00"> </text>
</g>
<!-- Authentication -->
<g id="node3" class="node"><title>Authentication</title>
<polyline fill="none" stroke="black" points="426.495,-188.2 535.505,-188.2 "/>
<path fill="none" stroke="black" d="M535.505,-188.2C541.505,-188.2 547.505,-194.2 547.505,-200.2"/>
<polyline fill="none" stroke="black" points="547.505,-200.2 547.505,-309.8 "/>
<path fill="none" stroke="black" d="M547.505,-309.8C547.505,-315.8 541.505,-321.8 535.505,-321.8"/>
<polyline fill="none" stroke="black" points="535.505,-321.8 426.495,-321.8 "/>
<path fill="none" stroke="black" d="M426.495,-321.8C420.495,-321.8 414.495,-315.8 414.495,-309.8"/>
<polyline fill="none" stroke="black" points="414.495,-309.8 414.495,-200.2 "/>
<path fill="none" stroke="black" d="M414.495,-200.2C414.495,-194.2 420.495,-188.2 426.495,-188.2"/>
<text text-anchor="middle" x="481" y="-303.8" font-family="Times,serif" font-size="14.00">Authentication</text>
<polyline fill="none" stroke="black" points="414.495,-297 547.505,-297 "/>
<text text-anchor="start" x="422.495" y="-279" font-family="Times,serif" font-size="14.00">id :integer</text>
<text text-anchor="start" x="422.495" y="-262.2" font-family="Times,serif" font-size="14.00">user_id :integer</text>
<text text-anchor="start" x="422.495" y="-245.4" font-family="Times,serif" font-size="14.00">provider :string</text>
<text text-anchor="start" x="422.495" y="-228.6" font-family="Times,serif" font-size="14.00">uid :string</text>
<text text-anchor="start" x="422.495" y="-211.8" font-family="Times,serif" font-size="14.00">created_at :datetime</text>
<text text-anchor="start" x="422.495" y="-195" font-family="Times,serif" font-size="14.00">updated_at :datetime</text>
</g>
<!-- Course -->
<g id="node4" class="node"><title>Course</title>
<polyline fill="none" stroke="black" points="255.374,-154.6 384.626,-154.6 "/>
<path fill="none" stroke="black" d="M384.626,-154.6C390.626,-154.6 396.626,-160.6 396.626,-166.6"/>
<polyline fill="none" stroke="black" points="396.626,-166.6 396.626,-343.4 "/>
<path fill="none" stroke="black" d="M396.626,-343.4C396.626,-349.4 390.626,-355.4 384.626,-355.4"/>
<polyline fill="none" stroke="black" points="384.626,-355.4 255.374,-355.4 "/>
<path fill="none" stroke="black" d="M255.374,-355.4C249.374,-355.4 243.374,-349.4 243.374,-343.4"/>
<polyline fill="none" stroke="black" points="243.374,-343.4 243.374,-166.6 "/>
<path fill="none" stroke="black" d="M243.374,-166.6C243.374,-160.6 249.374,-154.6 255.374,-154.6"/>
<text text-anchor="middle" x="320" y="-337.4" font-family="Times,serif" font-size="14.00">Course</text>
<polyline fill="none" stroke="black" points="243.374,-330.6 396.626,-330.6 "/>
<text text-anchor="start" x="251.374" y="-312.6" font-family="Times,serif" font-size="14.00">id :integer</text>
<text text-anchor="start" x="251.374" y="-295.8" font-family="Times,serif" font-size="14.00">name :string</text>
<text text-anchor="start" x="251.374" y="-279" font-family="Times,serif" font-size="14.00">course_number :string</text>
<text text-anchor="start" x="251.374" y="-262.2" font-family="Times,serif" font-size="14.00">section :integer</text>
<text text-anchor="start" x="251.374" y="-245.4" font-family="Times,serif" font-size="14.00">term :string</text>
<text text-anchor="start" x="251.374" y="-228.6" font-family="Times,serif" font-size="14.00">created_at :datetime</text>
<text text-anchor="start" x="251.374" y="-211.8" font-family="Times,serif" font-size="14.00">updated_at :datetime</text>
<text text-anchor="start" x="251.374" y="-195" font-family="Times,serif" font-size="14.00">studentgroup_id :integer</text>
<text text-anchor="start" x="251.374" y="-178.2" font-family="Times,serif" font-size="14.00">tagroup_id :integer</text>
<text text-anchor="start" x="251.374" y="-161.4" font-family="Times,serif" font-size="14.00">user_id :integer</text>
</g>
<!-- Studentgroup -->
<g id="node5" class="node"><title>Studentgroup</title>
<polyline fill="none" stroke="black" points="212.495,-0.6 321.505,-0.6 "/>
<path fill="none" stroke="black" d="M321.505,-0.6C327.505,-0.6 333.505,-6.6 333.505,-12.6"/>
<polyline fill="none" stroke="black" points="333.505,-12.6 333.505,-105.4 "/>
<path fill="none" stroke="black" d="M333.505,-105.4C333.505,-111.4 327.505,-117.4 321.505,-117.4"/>
<polyline fill="none" stroke="black" points="321.505,-117.4 212.495,-117.4 "/>
<path fill="none" stroke="black" d="M212.495,-117.4C206.495,-117.4 200.495,-111.4 200.495,-105.4"/>
<polyline fill="none" stroke="black" points="200.495,-105.4 200.495,-12.6 "/>
<path fill="none" stroke="black" d="M200.495,-12.6C200.495,-6.6 206.495,-0.6 212.495,-0.6"/>
<text text-anchor="middle" x="267" y="-99.4" font-family="Times,serif" font-size="14.00">Studentgroup</text>
<polyline fill="none" stroke="black" points="200.495,-92.6 333.505,-92.6 "/>
<text text-anchor="start" x="208.495" y="-74.6" font-family="Times,serif" font-size="14.00">id :integer</text>
<text text-anchor="start" x="208.495" y="-57.8" font-family="Times,serif" font-size="14.00">created_at :datetime</text>
<text text-anchor="start" x="208.495" y="-41" font-family="Times,serif" font-size="14.00">updated_at :datetime</text>
<text text-anchor="start" x="208.495" y="-24.2" font-family="Times,serif" font-size="14.00">user_id :integer</text>
<text text-anchor="start" x="208.495" y="-7.4" font-family="Times,serif" font-size="14.00">course_id :integer</text>
</g>
<!-- Course&#45;&gt;Studentgroup -->
<g id="edge2" class="edge"><title>Course&#45;&gt;Studentgroup</title>
<path fill="none" stroke="#68325a" d="M290.618,-146.452C288.668,-139.312 286.738,-132.249 284.873,-125.42"/>
<ellipse fill="none" stroke="#68325a" cx="291.747" cy="-150.584" rx="4.00001" ry="4.00001"/>
<ellipse fill="#68325a" stroke="#68325a" cx="283.769" cy="-121.38" rx="4.00001" ry="4.00001"/>
</g>
<!-- Tagroup -->
<g id="node6" class="node"><title>Tagroup</title>
<polyline fill="none" stroke="black" points="468.495,-0.6 577.505,-0.6 "/>
<path fill="none" stroke="black" d="M577.505,-0.6C583.505,-0.6 589.505,-6.6 589.505,-12.6"/>
<polyline fill="none" stroke="black" points="589.505,-12.6 589.505,-105.4 "/>
<path fill="none" stroke="black" d="M589.505,-105.4C589.505,-111.4 583.505,-117.4 577.505,-117.4"/>
<polyline fill="none" stroke="black" points="577.505,-117.4 468.495,-117.4 "/>
<path fill="none" stroke="black" d="M468.495,-117.4C462.495,-117.4 456.495,-111.4 456.495,-105.4"/>
<polyline fill="none" stroke="black" points="456.495,-105.4 456.495,-12.6 "/>
<path fill="none" stroke="black" d="M456.495,-12.6C456.495,-6.6 462.495,-0.6 468.495,-0.6"/>
<text text-anchor="middle" x="523" y="-99.4" font-family="Times,serif" font-size="14.00">Tagroup</text>
<polyline fill="none" stroke="black" points="456.495,-92.6 589.505,-92.6 "/>
<text text-anchor="start" x="464.495" y="-74.6" font-family="Times,serif" font-size="14.00">id :integer</text>
<text text-anchor="start" x="464.495" y="-57.8" font-family="Times,serif" font-size="14.00">created_at :datetime</text>
<text text-anchor="start" x="464.495" y="-41" font-family="Times,serif" font-size="14.00">updated_at :datetime</text>
<text text-anchor="start" x="464.495" y="-24.2" font-family="Times,serif" font-size="14.00">user_id :integer</text>
<text text-anchor="start" x="464.495" y="-7.4" font-family="Times,serif" font-size="14.00">course_id :integer</text>
</g>
<!-- Course&#45;&gt;Tagroup -->
<g id="edge4" class="edge"><title>Course&#45;&gt;Tagroup</title>
<path fill="none" stroke="#fc0250" d="M402.39,-156.55C403.261,-155.693 404.131,-154.842 405,-154 418.91,-140.526 434.628,-126.994 449.949,-114.562"/>
<ellipse fill="none" stroke="#fc0250" cx="399.474" cy="-159.478" rx="4.00002" ry="4.00002"/>
<ellipse fill="#fc0250" stroke="#fc0250" cx="453.368" cy="-111.811" rx="4.00002" ry="4.00002"/>
</g>
<!-- User -->
<g id="node7" class="node"><title>User</title>
<polyline fill="none" stroke="black" points="310.722,-393.2 491.278,-393.2 "/>
<path fill="none" stroke="black" d="M491.278,-393.2C497.278,-393.2 503.278,-399.2 503.278,-405.2"/>
<polyline fill="none" stroke="black" points="503.278,-405.2 503.278,-682.8 "/>
<path fill="none" stroke="black" d="M503.278,-682.8C503.278,-688.8 497.278,-694.8 491.278,-694.8"/>
<polyline fill="none" stroke="black" points="491.278,-694.8 310.722,-694.8 "/>
<path fill="none" stroke="black" d="M310.722,-694.8C304.722,-694.8 298.722,-688.8 298.722,-682.8"/>
<polyline fill="none" stroke="black" points="298.722,-682.8 298.722,-405.2 "/>
<path fill="none" stroke="black" d="M298.722,-405.2C298.722,-399.2 304.722,-393.2 310.722,-393.2"/>
<text text-anchor="middle" x="401" y="-676.8" font-family="Times,serif" font-size="14.00">User</text>
<polyline fill="none" stroke="black" points="298.722,-670 503.278,-670 "/>
<text text-anchor="start" x="306.722" y="-652" font-family="Times,serif" font-size="14.00">id :integer</text>
<text text-anchor="start" x="306.722" y="-635.2" font-family="Times,serif" font-size="14.00">email :string</text>
<text text-anchor="start" x="306.722" y="-618.4" font-family="Times,serif" font-size="14.00">encrypted_password :string</text>
<text text-anchor="start" x="306.722" y="-601.6" font-family="Times,serif" font-size="14.00">reset_password_token :string</text>
<text text-anchor="start" x="306.722" y="-584.8" font-family="Times,serif" font-size="14.00">reset_password_sent_at :datetime</text>
<text text-anchor="start" x="306.722" y="-568" font-family="Times,serif" font-size="14.00">remember_created_at :datetime</text>
<text text-anchor="start" x="306.722" y="-551.2" font-family="Times,serif" font-size="14.00">sign_in_count :integer</text>
<text text-anchor="start" x="306.722" y="-534.4" font-family="Times,serif" font-size="14.00">current_sign_in_at :datetime</text>
<text text-anchor="start" x="306.722" y="-517.6" font-family="Times,serif" font-size="14.00">last_sign_in_at :datetime</text>
<text text-anchor="start" x="306.722" y="-500.8" font-family="Times,serif" font-size="14.00">current_sign_in_ip :string</text>
<text text-anchor="start" x="306.722" y="-484" font-family="Times,serif" font-size="14.00">last_sign_in_ip :string</text>
<text text-anchor="start" x="306.722" y="-467.2" font-family="Times,serif" font-size="14.00">created_at :datetime</text>
<text text-anchor="start" x="306.722" y="-450.4" font-family="Times,serif" font-size="14.00">updated_at :datetime</text>
<text text-anchor="start" x="306.722" y="-433.6" font-family="Times,serif" font-size="14.00">role :string</text>
<text text-anchor="start" x="306.722" y="-416.8" font-family="Times,serif" font-size="14.00">first_name :string</text>
<text text-anchor="start" x="306.722" y="-400" font-family="Times,serif" font-size="14.00">last_name :string</text>
</g>
<!-- Studentgroup&#45;&gt;User -->
<g id="edge6" class="edge"><title>Studentgroup&#45;&gt;User</title>
<path fill="none" stroke="#d6e78d" d="M239.11,-125.335C216.821,-188.233 195.149,-284.136 234,-356 247.894,-381.7 267.745,-371.956 289,-392 289.801,-392.756 290.601,-393.518 291.399,-394.286"/>
<ellipse fill="none" stroke="#d6e78d" cx="240.605" cy="-121.21" rx="4.00001" ry="4.00001"/>
<polygon fill="#d6e78d" stroke="#d6e78d" points="291.428,-394.314 295.364,-404.55 294.98,-397.834 298.531,-401.353 298.531,-401.353 298.531,-401.353 294.98,-397.834 301.699,-398.157 291.428,-394.314 291.428,-394.314"/>
</g>
<!-- Tagroup&#45;&gt;User -->
<g id="edge8" class="edge"><title>Tagroup&#45;&gt;User</title>
<path fill="none" stroke="#311753" d="M549.117,-125.465C551.96,-134.908 554.399,-144.609 556,-154 571.084,-242.502 586.451,-271.544 556,-356 545.611,-384.814 528.638,-412.332 509.654,-436.97"/>
<ellipse fill="none" stroke="#311753" cx="547.844" cy="-121.421" rx="4.00001" ry="4.00001"/>
<polygon fill="#311753" stroke="#311753" points="509.619,-437.015 499.893,-442.079 506.523,-440.94 503.426,-444.866 503.426,-444.866 503.426,-444.866 506.523,-440.94 506.959,-447.653 509.619,-437.015 509.619,-437.015"/>
</g>
<!-- User&#45;&gt;Authentication -->
<g id="edge10" class="edge"><title>User&#45;&gt;Authentication</title>
<path fill="none" stroke="#b82422" d="M444.96,-385.295C450.154,-366.66 455.258,-348.348 459.918,-331.632"/>
<ellipse fill="none" stroke="#b82422" cx="443.831" cy="-389.343" rx="4.00001" ry="4.00001"/>
<polygon fill="#b82422" stroke="#b82422" points="459.922,-331.617 466.942,-323.193 461.265,-326.801 462.607,-321.984 462.607,-321.984 462.607,-321.984 461.265,-326.801 458.272,-320.776 459.922,-331.617 459.922,-331.617"/>
</g>
<!-- User&#45;&gt;Course -->
<g id="edge12" class="edge"><title>User&#45;&gt;Course</title>
<path fill="none" stroke="#7fb721" d="M355.938,-383.335C354.231,-377.289 352.536,-371.283 350.864,-365.359"/>
<polygon fill="#7fb721" stroke="#7fb721" points="356.004,-383.572 354.39,-394.418 357.363,-388.384 358.721,-393.196 358.721,-393.196 358.721,-393.196 357.363,-388.384 363.052,-391.973 356.004,-383.572 356.004,-383.572"/>
<polygon fill="#7fb721" stroke="#7fb721" points="350.791,-365.098 352.405,-354.252 349.433,-360.286 348.075,-355.474 348.075,-355.474 348.075,-355.474 349.433,-360.286 343.744,-356.697 350.791,-365.098 350.791,-365.098"/>
</g>
</g>
</svg>
