<?xml version="1.0" encoding="UTF-8" standalone="no"?>
<!DOCTYPE svg PUBLIC "-//W3C//DTD SVG 1.1//EN"
 "http://www.w3.org/Graphics/SVG/1.1/DTD/svg11.dtd">
<!-- Generated by graphviz version 2.28.0 (20121025.2137)
 -->
<!-- Title: models_diagram Pages: 1 -->
<svg width="488pt" height="238pt"
 viewBox="0.00 0.00 488.00 238.00" xmlns="http://www.w3.org/2000/svg" xmlns:xlink="http://www.w3.org/1999/xlink">
<g id="graph1" class="graph" transform="scale(1 1) rotate(0) translate(4 234)">
<title>models_diagram</title>
<polygon fill="white" stroke="white" points="-4,5 -4,-234 485,-234 485,5 -4,5"/>
<!-- _diagram_info -->
<g id="node1" class="node"><title>_diagram_info</title>
<text text-anchor="start" x="7.31226" y="-213" font-family="Times,serif" font-size="13.00">Models diagram</text>
<text text-anchor="start" x="7.31226" y="-197.4" font-family="Times,serif" font-size="13.00">Date: Oct 25 2012 &#45; 17:46</text>
<text text-anchor="start" x="7.31226" y="-181.8" font-family="Times,serif" font-size="13.00">Migration version: 20121017050957</text>
<text text-anchor="start" x="7.31226" y="-166.2" font-family="Times,serif" font-size="13.00">Generated by RailRoady 1.1.0</text>
<text text-anchor="start" x="7.31226" y="-150.6" font-family="Times,serif" font-size="13.00">http://railroady.prestonlee.com</text>
</g>
<!-- Ability -->
<g id="node2" class="node"><title>Ability</title>
<polygon fill="none" stroke="black" points="280.255,-205 225.745,-205 225.745,-169 280.255,-169 280.255,-205"/>
<text text-anchor="middle" x="253" y="-181.4" font-family="Times,serif" font-size="14.00">Ability</text>
</g>
<!-- Authentication -->
<g id="node3" class="node"><title>Authentication</title>
<ellipse fill="none" stroke="black" cx="390" cy="-90" rx="68.14" ry="18"/>
<text text-anchor="middle" x="390" y="-84.4" font-family="Times,serif" font-size="14.00">Authentication</text>
</g>
<!-- Course -->
<g id="node4" class="node"><title>Course</title>
<ellipse fill="none" stroke="black" cx="265" cy="-90" rx="38.0929" ry="18"/>
<text text-anchor="middle" x="265" y="-84.4" font-family="Times,serif" font-size="14.00">Course</text>
</g>
<!-- Studentgroup -->
<g id="node5" class="node"><title>Studentgroup</title>
<ellipse fill="none" stroke="black" cx="232" cy="-18" rx="63.112" ry="18"/>
<text text-anchor="middle" x="232" y="-12.4" font-family="Times,serif" font-size="14.00">Studentgroup</text>
</g>
<!-- Course&#45;&gt;Studentgroup -->
<g id="edge2" class="edge"><title>Course&#45;&gt;Studentgroup</title>
<path fill="none" stroke="#d02e7d" d="M253.472,-64.5475C250.313,-57.8456 246.885,-50.5745 243.715,-43.8505"/>
<ellipse fill="none" stroke="#d02e7d" cx="255.306" cy="-68.4368" rx="4.00002" ry="4.00002"/>
<ellipse fill="#d02e7d" stroke="#d02e7d" cx="241.85" cy="-39.8934" rx="4.00002" ry="4.00002"/>
</g>
<!-- Tagroup -->
<g id="node6" class="node"><title>Tagroup</title>
<ellipse fill="none" stroke="black" cx="437" cy="-18" rx="43.1156" ry="18"/>
<text text-anchor="middle" x="437" y="-12.4" font-family="Times,serif" font-size="14.00">Tagroup</text>
</g>
<!-- Course&#45;&gt;Tagroup -->
<g id="edge4" class="edge"><title>Course&#45;&gt;Tagroup</title>
<path fill="none" stroke="#08b5f4" d="M300.716,-74.4645C329.658,-62.6858 370.312,-46.1404 399.677,-34.1896"/>
<ellipse fill="none" stroke="#08b5f4" cx="296.723" cy="-76.0896" rx="4.00001" ry="4.00001"/>
<ellipse fill="#08b5f4" stroke="#08b5f4" cx="403.557" cy="-32.6104" rx="4.00001" ry="4.00001"/>
</g>
<!-- User -->
<g id="node7" class="node"><title>User</title>
<ellipse fill="none" stroke="black" cx="328" cy="-187" rx="28.9087" ry="18"/>
<text text-anchor="middle" x="328" y="-181.4" font-family="Times,serif" font-size="14.00">User</text>
</g>
<!-- Studentgroup&#45;&gt;User -->
<g id="edge6" class="edge"><title>Studentgroup&#45;&gt;User</title>
<path fill="none" stroke="#688880" d="M219.831,-43.4362C212.274,-62.3657 206.057,-88.5541 218,-108 236.516,-138.148 260.746,-122.706 289,-144 296.04,-149.306 302.878,-155.969 308.811,-162.415"/>
<ellipse fill="none" stroke="#688880" cx="221.413" cy="-39.7394" rx="4.00002" ry="4.00002"/>
<polygon fill="#688880" stroke="#688880" points="309.183,-162.838 312.41,-173.318 312.486,-166.592 315.789,-170.346 315.789,-170.346 315.789,-170.346 312.486,-166.592 319.167,-167.373 309.183,-162.838 309.183,-162.838"/>
</g>
<!-- Tagroup&#45;&gt;User -->
<g id="edge8" class="edge"><title>Tagroup&#45;&gt;User</title>
<path fill="none" stroke="#938874" d="M455.165,-42.2519C467.353,-60.8867 479.147,-87.2553 467,-108 445.078,-145.438 397.873,-166.275 364.575,-176.803"/>
<ellipse fill="none" stroke="#938874" cx="452.618" cy="-38.5628" rx="4.00002" ry="4.00002"/>
<polygon fill="#938874" stroke="#938874" points="364.312,-176.882 353.442,-175.435 359.522,-178.314 354.731,-179.747 354.731,-179.747 354.731,-179.747 359.522,-178.314 356.021,-184.058 364.312,-176.882 364.312,-176.882"/>
</g>
<!-- User&#45;&gt;Authentication -->
<g id="edge10" class="edge"><title>User&#45;&gt;Authentication</title>
<path fill="none" stroke="#aa7fe5" d="M343.022,-162.983C352.22,-148.889 364.001,-130.837 373.464,-116.338"/>
<ellipse fill="none" stroke="#aa7fe5" cx="340.704" cy="-166.535" rx="4.00002" ry="4.00002"/>
<polygon fill="#aa7fe5" stroke="#aa7fe5" points="373.547,-116.21 382.781,-110.295 376.28,-112.023 379.013,-107.835 379.013,-107.835 379.013,-107.835 376.28,-112.023 375.244,-105.376 373.547,-116.21 373.547,-116.21"/>
</g>
<!-- User&#45;&gt;Course -->
<g id="edge12" class="edge"><title>User&#45;&gt;Course</title>
<path fill="none" stroke="#a5d0ae" d="M311.785,-161.549C302.554,-147.629 291.011,-130.223 281.7,-116.183"/>
<polygon fill="#a5d0ae" stroke="#a5d0ae" points="311.786,-161.551 313.563,-172.372 314.55,-165.718 317.313,-169.885 317.313,-169.885 317.313,-169.885 314.55,-165.718 321.063,-167.397 311.786,-161.551 311.786,-161.551"/>
<polygon fill="#a5d0ae" stroke="#a5d0ae" points="281.478,-115.848 279.702,-105.027 278.715,-111.681 275.951,-107.514 275.951,-107.514 275.951,-107.514 278.715,-111.681 272.201,-110.001 281.478,-115.848 281.478,-115.848"/>
</g>
</g>
</svg>
